<svg width="22" height="22" viewBox="0 0 22 22" fill="none" xmlns="http://www.w3.org/2000/svg">
<path d="M1.55344 1.55344C0.815522 2.29135 0.815522 3.48775 1.55344 4.22567L8.32778 11L1.55344 17.7743C0.815519 18.5123 0.815521 19.7086 1.55344 20.4466C2.29136 21.1845 3.48776 21.1845 4.22567 20.4466L11 13.6722L17.7743 20.4465C18.5122 21.1845 19.7086 21.1845 20.4466 20.4465C21.1845 19.7086 21.1845 18.5122 20.4466 17.7743L13.6722 11L20.4466 4.2257C21.1845 3.48778 21.1845 2.29138 20.4466 1.55346C19.7086 0.815549 18.5122 0.815549 17.7743 1.55347L11 8.32777L4.22567 1.55344C3.48776 0.81552 2.29136 0.81552 1.55344 1.55344Z" fill="#754E29"/>
</svg>
